<?xml version="1.0" encoding="iso-8859-1"?>
<!-- Generator: Adobe Illustrator 19.0.0, SVG Export Plug-In . SVG Version: 6.00 Build 0)  -->
<svg version="1.1" id="Layer_1" xmlns="http://www.w3.org/2000/svg" xmlns:xlink="http://www.w3.org/1999/xlink" x="0px" y="0px"
	 viewBox="0 0 511.996 511.996" style="enable-background:new 0 0 511.996 511.996;" xml:space="preserve">
<path style="fill:#57555C;" d="M483.537,209.331c-33.072,22.318-78.01,22.102-115.445,0.444l33.214-33.214
	c0,0-23.382-0.666-35.526-12.81c-13.721-13.721-11.368-34.084-11.368-34.084l-33.214,33.214
	c-21.661-37.438-21.873-82.373,0.439-115.45c-51.942-23.501-103.059-26.981-139.051-6.997
	c29.611,42.976,40.59,89.323,28.976,122.714c3.77,2.867,7.45,5.918,10.895,9.363c30.793,30.793,38.464,75.767,22.942,113.066
	c37.297-15.525,82.268-7.858,113.064,22.938c3.447,3.447,6.497,7.125,9.365,10.897c33.387-11.617,79.735-0.638,122.711,28.973
	C510.521,312.393,507.04,261.277,483.537,209.331z"/>
<path style="fill:#787780;" d="M245.402,285.57c21.319-34.318,27.71-84.695,2.271-120.041c-2.846-3.954-5.985-7.556-9.247-10.995
	c16.837-31.086,13.457-78.595-8.856-125.775c-0.233-0.441-0.364-0.795-0.421-1.093c-17.96,1.344-31.701,4.68-46.563,12.767
	c29.611,42.976,40.609,89.343,28.995,122.733c3.77,2.867,7.45,5.918,10.895,9.363C253.269,203.323,260.925,248.272,245.402,285.57
	L245.402,285.57z"/>
<path style="fill:#3B3A3C;" d="M245.398,285.569c34.318-21.319,84.718-27.689,120.063-2.249c3.954,2.846,7.556,5.985,10.995,9.247
	c31.086-16.837,79.526-13.041,126.706,9.272c-0.299,10.015-3.809,31.15-12.624,46.548c-42.976-29.611-89.323-40.59-122.714-28.976
	c-2.866-3.77-5.918-7.45-9.363-10.895C327.667,277.725,282.697,270.046,245.398,285.569L245.398,285.569z"/>
<path style="fill:#57555C;" d="M109.367,317.619c12.384,18.35,12.263,43.286,0.246,64.057l-18.43-18.43
	c0,0-0.369,12.974-7.108,19.713c-7.614,7.614-18.912,6.308-18.912,6.308l18.43,18.43c-20.773,12.018-45.706,12.138-64.06-0.243
	c-13.04,28.822-14.971,57.184-3.883,77.155c23.846-16.431,49.562-22.522,68.09-16.078c1.59-2.092,3.284-4.133,5.195-6.045
	c17.086-17.086,42.04-21.343,62.737-12.729c-8.615-20.694-4.36-45.648,12.728-62.736c1.913-1.913,3.954-3.605,6.046-5.197
	c-6.446-18.525-0.354-44.243,16.077-68.089C166.553,302.647,138.19,304.578,109.367,317.619z"/>
<path style="fill:#787780;" d="M151.67,449.748c-19.042-11.829-47.008-15.36-66.619-1.245c-2.194,1.58-4.193,3.322-6.101,5.131
	c-17.248-9.343-43.609-7.467-69.788,4.915c-0.355,0.093-0.256,0.043-0.578,0.068c0.356,8.724,2.656,17.786,7.066,25.991
	c23.846-16.431,49.562-22.522,68.09-16.078c1.59-2.092,3.284-4.134,5.195-6.045c17.086-17.086,42.04-21.343,62.737-12.729
	L151.67,449.748z"/>
<path style="fill:#3B3A3C;" d="M151.67,449.742c-11.829-19.042-15.355-47.004-1.24-66.617c1.58-2.194,3.322-4.193,5.131-6.101
	c-9.343-17.248-7.467-43.609,4.915-69.788c0.131-0.392,0.081-0.243,0.131-0.517c10.462,0.301,17.74,2.459,25.928,7.006
	c-16.431,23.846-22.522,49.562-16.078,68.09c-2.092,1.59-4.133,3.283-6.045,5.195c-17.085,17.086-21.343,42.04-12.729,62.737
	L151.67,449.742z"/>
<g>
	<path style="fill:#1C2042;" d="M491.176,205.786c-1.089-2.405-3.182-4.207-5.721-4.928c-2.543-0.722-5.269-0.283-7.456,1.194
		c-26.793,18.081-63.162,19.926-95.394,5.508l24.514-24.514c2.531-2.531,3.312-6.323,1.991-9.649
		c-1.322-3.324-4.496-5.545-8.073-5.647c-5.513-0.157-21.55-2.293-29.445-10.188c-10.377-10.38-8.815-26.605-8.803-26.72
		c0.439-3.788-1.569-7.438-5.003-9.097c-3.434-1.658-7.54-0.964-10.236,1.731l-24.514,24.515
		c-14.414-32.229-12.572-68.603,5.505-95.401c1.476-2.188,1.913-4.916,1.192-7.456c-0.721-2.539-2.522-4.633-4.928-5.72
		c-9.741-4.407-19.58-8.182-29.248-11.221c-4.721-1.484-9.753,1.139-11.237,5.861c-1.484,4.721,1.14,9.751,5.862,11.237
		c5.937,1.866,11.955,4.035,17.976,6.48c-18.249,34.393-16.7,78.66,4.757,115.744c1.394,2.411,3.831,4.035,6.591,4.398
		c2.764,0.367,5.533-0.58,7.503-2.549l19.974-19.975c1.936,6.867,5.493,14.403,11.934,20.843
		c6.569,6.571,15.336,10.345,23.15,12.514l-20.837,20.837c-1.969,1.969-2.911,4.742-2.549,7.503
		c0.362,2.761,1.987,5.198,4.397,6.592c37.09,21.458,81.355,23.004,115.744,4.751c17.373,42.739,20.039,82.939,7.575,112.997
		c-40.499-25.427-82.743-35.001-115.873-26.218c-2.111-2.538-4.157-4.788-6.254-6.885c-28.198-28.198-68.067-39.309-105.517-30.486
		c8.822-37.446-2.292-77.324-30.486-105.518c-2.097-2.098-4.347-4.144-6.884-6.253c8.78-33.133-0.795-75.379-26.223-115.878
		c12.978-5.39,27.876-7.963,44.485-7.67c4.981,0.103,9.031-3.853,9.119-8.8c0.087-4.949-3.852-9.032-8.801-9.12
		c-23.651-0.4-44.595,4.339-62.258,14.146c-2.209,1.226-3.799,3.328-4.374,5.789c-0.577,2.46-0.088,5.05,1.345,7.131
		c27.783,40.322,38.471,84.266,27.892,114.683c-1.274,3.662-0.048,7.73,3.039,10.078c4.035,3.068,7.206,5.792,9.982,8.568
		c27.449,27.447,35.693,67.988,21.005,103.284c-1.394,3.352-0.63,7.213,1.937,9.781c2.568,2.565,6.43,3.33,9.781,1.936
		c35.293-14.69,75.833-6.448,103.283,21.004c2.775,2.773,5.498,5.947,8.57,9.984c2.348,3.088,6.415,4.309,10.076,3.039
		c30.413-10.588,74.357,0.104,114.682,27.89c1.509,1.04,3.285,1.582,5.084,1.582c0.683,0,1.369-0.078,2.046-0.237
		c2.46-0.576,4.562-2.166,5.789-4.374C518.817,315.115,516.385,261.5,491.176,205.786z"/>
	<path style="fill:#1C2042;" d="M191.398,305.748c-11.643-6.463-26.14-9.267-41.921-8.101c-4.936,0.363-8.643,4.659-8.279,9.595
		c0.363,4.936,4.659,8.646,9.596,8.279c8.395-0.619,16.206,0.136,23.048,2.197c-12.187,21.124-16.881,42.891-13.053,60.731
		c-0.77,0.692-1.497,1.381-2.199,2.083c-15.162,15.163-21.951,36.055-19.089,56.377c-20.319-2.861-41.215,3.926-56.374,19.089
		c-0.701,0.701-1.392,1.428-2.083,2.197c-17.847-3.83-39.624,0.871-60.753,13.067c-4.317-14.183-2.851-32.112,4.247-51.301
		c19.628,8.646,43.717,7.115,64.07-4.658c2.41-1.396,4.035-3.831,4.397-6.592c0.362-2.761-0.58-5.533-2.549-7.503l-6.771-6.77
		c2.49-1.288,4.967-3.008,7.253-5.293c2.484-2.483,4.334-5.432,5.713-8.436l7.153,7.152c1.969,1.968,4.742,2.914,7.503,2.549
		c2.761-0.363,5.197-1.987,6.591-4.398c11.829-20.445,13.32-44.658,4.539-64.332c0.793-0.237,1.807-0.503,3.276-0.873
		c4.799-1.212,7.707-6.083,6.497-10.882c-1.212-4.799-6.085-7.713-10.882-6.495c-5.854,1.477-7.303,2.116-10.631,3.748
		c-1.09,0.533-2.445,1.198-4.495,2.126c-2.405,1.089-4.208,3.181-4.928,5.721c-0.721,2.54-0.283,5.268,1.194,7.456
		c8.252,12.227,9.87,28.408,4.862,43.558l-9.281-9.282c-2.531-2.531-6.323-3.312-9.649-1.989c-3.325,1.322-5.544,4.495-5.647,8.071
		c-0.084,2.949-1.33,10.475-4.487,13.631c-4.353,4.352-11.532,3.742-11.546,3.742c-3.787-0.437-7.438,1.569-9.097,5.003
		c-1.66,3.433-0.965,7.541,1.731,10.236l9.281,9.281c-15.149,5.005-31.332,3.39-43.562-4.861c-2.188-1.476-4.915-1.912-7.456-1.192
		c-2.539,0.721-4.633,2.522-5.721,4.928c-14.513,32.075-15.807,63.129-3.554,85.201c1.226,2.209,3.329,3.798,5.789,4.374
		c0.676,0.159,1.362,0.237,2.046,0.237c1.799,0,3.576-0.542,5.084-1.582c21.346-14.71,44.36-20.459,60.062-14.993
		c3.662,1.274,7.73,0.048,10.076-3.04c1.592-2.091,2.988-3.722,4.4-5.133c14.085-14.083,34.87-18.316,52.957-10.792
		c3.352,1.396,7.213,0.632,9.781-1.937c2.567-2.567,3.331-6.428,1.936-9.781c-7.529-18.084-3.293-38.87,10.791-52.953
		c1.412-1.411,3.045-2.81,5.137-4.403c3.086-2.348,4.311-6.414,3.037-10.078c-5.462-15.697,0.283-38.709,14.992-60.059
		c1.434-2.08,1.923-4.67,1.345-7.13C195.196,309.078,193.607,306.976,191.398,305.748z"/>
</g>
<g>
</g>
<g>
</g>
<g>
</g>
<g>
</g>
<g>
</g>
<g>
</g>
<g>
</g>
<g>
</g>
<g>
</g>
<g>
</g>
<g>
</g>
<g>
</g>
<g>
</g>
<g>
</g>
<g>
</g>
</svg>
